<?xml version="1.0" standalone="no"?>
<!DOCTYPE svg PUBLIC "-//W3C//DTD SVG 20010904//EN"
 "http://www.w3.org/TR/2001/REC-SVG-20010904/DTD/svg10.dtd">
<svg version="1.0" xmlns="http://www.w3.org/2000/svg"
 width="2654.000000pt" height="1600.000000pt" viewBox="0 0 2654.000000 1600.000000"
 preserveAspectRatio="xMidYMid meet">

<g transform="translate(0.000000,1600.000000) scale(0.100000,-0.100000)"
fill="#000000" stroke="none">
<path d="M7477 13703 c-3 -5 -21 -69 -42 -143 -20 -74 -46 -164 -56 -200 -11
-36 -46 -164 -80 -285 -33 -121 -77 -283 -99 -360 -21 -77 -57 -207 -79 -290
-23 -82 -66 -242 -97 -355 -88 -322 -184 -683 -184 -691 0 -3 46 2 103 13 137
25 352 48 460 48 l87 0 0 1135 c0 624 -2 1135 -4 1135 -3 0 -7 -3 -9 -7z"/>
<path d="M14915 13398 c-36 -28 -55 -76 -55 -137 0 -62 -7 -70 -150 -168 -119
-82 -141 -97 -420 -291 -633 -441 -886 -619 -965 -677 -38 -29 -108 -78 -154
-110 l-84 -58 -203 2 -204 2 0 -510 0 -511 480 0 480 0 0 218 c0 119 4 223 9
230 6 9 46 14 147 16 76 2 145 4 152 5 14 1 30 1 77 0 67 -2 131 -1 340 5 116
3 216 2 223 -3 7 -4 15 -17 17 -27 2 -10 4 -283 4 -606 l1 -588 85 0 85 0 0
150 0 150 226 0 c214 0 226 -1 214 -17 -7 -10 -74 -77 -149 -150 l-136 -132
61 -1 61 0 111 114 112 114 0 -114 0 -114 100 0 100 0 0 149 c0 123 3 152 16
165 12 13 39 16 125 16 l109 0 0 296 0 297 -65 128 c-59 116 -64 129 -49 143
14 15 185 16 1745 16 952 0 1735 3 1741 6 6 4 29 6 52 5 35 -2 208 -4 271 -3
11 0 144 -2 295 -4 322 -5 281 -5 400 1 114 5 114 5 143 5 12 0 44 1 71 3 68
4 76 -7 76 -109 l0 -84 73 0 c39 0 79 -5 87 -10 17 -10 17 -20 19 -581 l1
-316 86 -114 c47 -63 88 -113 90 -112 3 1 44 51 90 112 l84 110 0 440 c0 386
2 441 16 455 11 11 35 16 80 16 l64 0 0 84 c0 110 3 113 111 108 88 -4 180 -5
214 -3 20 1 40 1 73 0 33 0 107 0 117 2 6 1 17 -1 25 -5 8 -3 22 -1 30 4 12 8
9 15 -20 42 -64 58 -164 151 -250 233 -75 70 -188 174 -376 348 l-51 47 -587
0 -587 0 -152 39 c-84 22 -361 92 -617 156 -256 64 -532 134 -615 155 -193 50
-390 100 -640 161 -1263 310 -2641 660 -2651 674 -6 8 -14 33 -18 54 -4 25
-17 51 -37 70 -26 26 -38 31 -78 31 -34 0 -56 -6 -76 -22z m1950 -659 c908
-226 1682 -419 1720 -430 39 -10 201 -51 360 -89 352 -86 322 -77 330 -98 16
-43 50 -42 -1554 -42 l-1526 0 -65 -62 c-36 -34 -101 -96 -145 -137 -44 -41
-118 -112 -165 -156 -123 -118 -117 -115 -240 -115 -58 0 -111 4 -118 9 -15 9
-23 42 -158 661 -52 239 -115 525 -139 636 -25 110 -45 205 -45 211 0 27 29
41 62 32 18 -5 776 -194 1683 -420z m-2002 318 c3 -7 -8 -98 -23 -202 -16
-105 -52 -350 -80 -545 -29 -195 -62 -422 -74 -503 -15 -100 -26 -151 -36
-158 -9 -5 -209 -9 -497 -8 -416 0 -485 2 -498 15 -11 12 -15 39 -15 112 l0
96 203 205 c205 208 426 435 682 701 280 290 301 311 318 305 8 -4 18 -12 20
-18z m206 -426 c30 -141 31 -145 13 -165 -10 -12 -49 -57 -87 -101 -37 -44
-73 -86 -80 -93 -10 -11 -9 6 1 75 26 175 73 489 80 538 l8 50 17 -80 c9 -44
31 -145 48 -224z m-585 162 c4 -10 -92 -114 -302 -326 -169 -172 -354 -360
-412 -419 l-105 -106 -45 4 c-25 3 -105 6 -178 7 -133 3 -158 10 -146 41 5 11
83 67 363 263 80 55 175 122 211 148 36 26 119 85 185 131 66 46 144 101 173
122 81 56 153 108 190 136 35 26 56 25 66 -1z m660 -510 c9 -49 37 -184 62
-302 24 -118 42 -216 40 -218 -3 -4 -222 255 -304 359 -11 13 0 32 79 132 51
64 95 116 99 116 4 0 15 -39 24 -87z m-144 -381 c154 -185 230 -280 230 -286
0 -3 -94 -6 -210 -6 -115 0 -210 4 -210 8 0 15 60 334 69 367 5 19 6 36 3 39
-3 3 -1 6 4 5 5 0 56 -57 114 -127z m4880 44 c0 -1 -83 -80 -185 -175 l-185
-172 -97 93 c-54 51 -133 127 -176 168 l-78 75 353 5 c194 3 356 6 361 8 4 1
7 0 7 -2z m-2991 -168 c-94 -90 -175 -164 -180 -166 -7 -3 -71 56 -319 295
l-35 33 352 0 352 0 -170 -162z m1075 134 c-17 -15 -89 -81 -160 -147 -71 -65
-139 -128 -151 -138 l-22 -19 -148 134 c-81 75 -164 149 -183 166 l-35 31 365
0 365 0 -31 -27z m901 -30 c-34 -31 -92 -86 -130 -121 -39 -36 -91 -85 -117
-109 l-46 -45 -176 162 c-97 89 -176 164 -176 167 0 2 159 4 353 4 l352 0 -60
-58z m1895 5 c-30 -29 -112 -105 -181 -169 l-126 -118 -174 161 c-96 89 -178
165 -183 170 -6 5 144 9 355 9 l364 0 -55 -53z m169 -318 c-200 -4 -365 -5
-367 -4 -2 2 201 188 327 297 l54 48 175 -168 175 -167 -364 -6z m-4617 264
c40 -38 110 -104 156 -148 46 -44 87 -82 90 -85 4 -3 13 -13 20 -22 13 -16 -8
-17 -345 -17 l-358 0 175 170 c96 93 178 169 182 169 4 0 40 -30 80 -67z m961
-32 c56 -54 132 -127 170 -162 37 -35 67 -66 67 -69 0 -3 -158 -5 -350 -5
-193 0 -350 3 -350 6 0 4 19 23 43 42 23 20 101 92 172 161 72 69 133 125 138
126 4 0 53 -44 110 -99z m1902 -26 c7 -5 58 -53 115 -105 102 -94 103 -95 74
-101 -35 -8 -661 -5 -669 3 -3 3 41 47 97 99 56 52 136 125 177 162 l74 69 60
-59 c33 -32 66 -62 72 -68z m833 98 c28 -28 44 -43 225 -207 53 -49 97 -91 97
-95 0 -5 -482 -4 -640 2 l-64 2 174 162 c96 90 176 163 178 163 1 0 15 -12 30
-27z m-1777 -95 c148 -134 215 -201 203 -205 -19 -5 -684 -8 -682 -3 7 13 338
320 346 320 5 0 65 -50 133 -112z m-2710 -545 c46 -89 72 -151 77 -188 5 -31
6 -57 3 -59 -3 -2 -121 -3 -261 -2 l-255 1 0 193 0 192 183 -2 184 -3 69 -132z
m5353 -29 c14 -13 16 -55 16 -304 0 -249 -2 -291 -16 -304 -12 -12 -37 -16
-109 -16 -72 0 -97 4 -109 16 -14 13 -16 55 -16 304 0 249 2 291 16 304 12 12
37 16 109 16 72 0 97 -4 109 -16z"/>
<path d="M14885 11790 c4 -6 11 -8 16 -5 14 9 11 15 -7 15 -8 0 -12 -5 -9 -10z"/>
<path d="M13585 9893 c-100 -7 -393 -53 -495 -78 -222 -54 -480 -151 -630
-239 -191 -111 -402 -297 -521 -456 -136 -183 -236 -399 -285 -621 -26 -116
-28 -139 -28 -364 -1 -224 1 -249 26 -366 59 -274 163 -496 332 -708 87 -108
272 -277 391 -357 256 -170 617 -298 970 -344 194 -25 459 -30 1488 -30 l1087
0 0 1085 0 1085 -1037 0 -1038 -1 -19 -27 c-18 -25 -96 -124 -419 -532 l-115
-145 830 -5 c722 -4 830 -7 838 -20 6 -9 10 -137 10 -297 0 -249 -2 -283 -17
-298 -15 -15 -73 -16 -707 -12 -641 4 -699 6 -797 25 -364 70 -602 234 -735
507 -74 154 -103 340 -83 533 43 412 332 694 819 799 79 16 156 18 1012 19
511 0 930 3 932 5 4 5 234 321 364 502 51 71 129 178 173 238 l79 109 -1187
-2 c-654 -1 -1210 -3 -1238 -5z"/>
<path d="M16465 9817 c-33 -45 -174 -232 -313 -416 -139 -183 -251 -335 -250
-337 8 -8 769 -26 993 -24 6 0 120 2 255 4 135 3 267 5 294 5 39 1 47 4 42 17
-3 8 -2 12 4 9 6 -3 10 -11 10 -16 0 -6 7 -17 15 -25 13 -14 15 -178 15 -1360
l0 -1344 500 0 500 0 0 1344 c0 1177 2 1346 15 1359 13 13 73 15 437 11 233
-2 428 -3 433 -4 6 0 112 1 237 3 l228 2 0 428 0 427 -760 0 c-492 0 -759 -4
-755 -10 3 -6 1 -10 -4 -10 -6 0 -11 4 -11 9 0 6 -71 10 -173 10 l-173 1 -19
-32 c-20 -34 -34 -24 -15 11 10 20 8 21 -44 21 -40 0 -57 -4 -64 -16 -8 -14
-10 -14 -15 -1 -4 12 -28 15 -117 16 -74 1 -109 -2 -105 -9 3 -5 1 -10 -4 -10
-6 0 -11 4 -11 10 0 6 -202 9 -542 9 l-543 0 -60 -82z m1335 38 c5 3 12 0 16
-6 4 -7 3 -9 -4 -5 -6 3 -16 -2 -22 -11 -10 -16 -11 -16 -6 -1 3 9 0 18 -5 20
-6 2 -7 12 -2 23 7 19 8 19 11 -3 2 -12 7 -20 12 -17z m95 16 c-3 -10 1 -24
10 -31 8 -7 15 -18 15 -24 0 -6 -4 -5 -9 3 -5 8 -17 16 -25 17 -16 2 -21 -12
-18 -49 2 -15 -1 -15 -12 -5 -12 11 -10 20 11 61 27 49 39 61 28 28z m373 -18
c-15 -18 -21 -9 -13 18 6 16 9 18 16 8 4 -8 3 -19 -3 -26z m-908 -3 c-6 -12
-14 -19 -17 -17 -2 3 1 15 7 27 6 12 14 19 17 17 2 -3 -1 -15 -7 -27z m798 5
c-3 -3 -9 2 -12 12 -6 14 -5 15 5 6 7 -7 10 -15 7 -18z m64 3 c-7 -7 -12 -8
-12 -2 0 14 12 26 19 19 2 -3 -1 -11 -7 -17z m246 -3 c-3 -3 -9 2 -12 12 -6
14 -5 15 5 6 7 -7 10 -15 7 -18z m-801 -8 c-1 -12 5 -21 16 -23 15 -2 18 2 13
22 -4 13 -2 24 3 24 22 0 21 -22 -2 -61 -24 -40 -25 -40 -32 -18 -5 13 -7 25
-6 27 1 1 -5 10 -14 18 -20 21 -19 30 5 30 13 0 18 -6 17 -19z m-252 -7 c3 -5
1 -10 -4 -10 -6 0 -11 5 -11 10 0 6 2 10 4 10 3 0 8 -4 11 -10z m615 0 c0 -5
-5 -10 -11 -10 -5 0 -7 5 -4 10 3 6 8 10 11 10 2 0 4 -4 4 -10z m293 -15 c-3
-9 -8 -14 -10 -11 -3 3 -2 9 2 15 9 16 15 13 8 -4z m-738 -5 c3 -5 1 -10 -4
-10 -6 0 -11 5 -11 10 0 6 2 10 4 10 3 0 8 -4 11 -10z m177 -20 c4 -27 3 -29
-10 -16 -8 8 -12 22 -9 30 9 23 14 20 19 -14z m191 10 c-5 -19 -23 -29 -23
-12 0 7 20 32 26 32 1 0 0 -9 -3 -20z m257 10 c0 -5 -4 -10 -10 -10 -5 0 -10
5 -10 10 0 6 5 10 10 10 6 0 10 -4 10 -10z m-877 -15 c-3 -9 -8 -14 -10 -11
-3 3 -2 9 2 15 9 16 15 13 8 -4z m225 -10 c-3 -3 -9 2 -12 12 -6 14 -5 15 5 6
7 -7 10 -15 7 -18z m613 -6 c30 -28 31 -31 16 -46 -13 -13 -19 -14 -31 -3 -9
7 -16 17 -16 23 0 6 6 3 13 -8 9 -12 16 -14 21 -7 3 6 -8 24 -26 41 -18 17
-28 31 -22 31 7 0 27 -14 45 -31z m92 -4 c-3 -9 -8 -14 -10 -11 -3 3 -2 9 2
15 9 16 15 13 8 -4z m-713 -15 c0 -5 -2 -10 -4 -10 -3 0 -8 5 -11 10 -3 6 -1
10 4 10 6 0 11 -4 11 -10z m-359 -37 c19 -22 23 -29 9 -18 -36 30 -50 43 -50
49 0 11 6 6 41 -31z m354 -5 c24 -24 30 -33 14 -23 -23 17 -65 65 -56 65 1 0
21 -19 42 -42z m86 -5 c-11 -21 -20 -35 -21 -31 0 12 33 78 38 74 2 -2 -6 -21
-17 -43z m479 33 c0 -16 -18 -31 -27 -22 -8 8 5 36 17 36 5 0 10 -6 10 -14z
m-99 -29 c-8 -8 -11 -7 -11 4 0 20 13 34 18 19 3 -7 -1 -17 -7 -23z m268 12
c-22 -14 -33 -10 -19 6 7 8 17 12 22 9 6 -4 5 -10 -3 -15z m-588 -41 c11 -21
11 -22 -4 -9 -10 7 -17 17 -17 22 0 15 9 10 21 -13z m375 1 c19 -21 19 -21 -9
-8 -15 7 -27 16 -27 21 0 14 16 9 36 -13z m81 -1 c-2 -23 -9 -23 -24 1 -11 17
-10 20 7 18 11 -1 18 -8 17 -19z m-343 -12 c-3 -9 -10 -16 -16 -16 -5 0 -7 -4
-3 -9 3 -5 1 -12 -4 -16 -13 -8 -5 33 10 51 15 18 22 13 13 -10z m70 0 c-6
-15 -24 -23 -24 -11 0 8 24 34 28 30 1 -1 0 -10 -4 -19z m92 4 c19 0 18 -15
-3 -31 -10 -8 -14 -9 -10 -2 4 6 3 14 -3 18 -5 3 -10 14 -9 23 0 11 3 12 6 5
2 -7 11 -13 19 -13z m289 10 c3 -5 1 -10 -4 -10 -6 0 -11 5 -11 10 0 6 2 10 4
10 3 0 8 -4 11 -10z m-70 -20 c3 -5 1 -10 -4 -10 -6 0 -11 5 -11 10 0 6 2 10
4 10 3 0 8 -4 11 -10z m-824 -23 c-10 -9 -11 -8 -5 6 3 10 9 15 12 12 3 -3 0
-11 -7 -18z m269 -9 c0 -5 7 -8 16 -8 9 0 12 5 8 12 -4 7 -3 8 4 4 14 -8 4
-36 -12 -35 -6 0 -22 14 -35 31 -23 29 -23 30 -3 17 12 -8 22 -17 22 -21z
m389 -7 c-8 -2 -18 -9 -22 -15 -6 -7 -7 -4 -3 7 3 10 6 23 6 29 0 6 7 5 16 -3
13 -11 13 -14 3 -18z m201 4 c14 -19 14 -19 -2 -6 -10 7 -18 18 -18 24 0 6 1
8 3 6 1 -2 9 -13 17 -24z m-949 -22 c-12 -20 -14 -14 -5 12 4 9 9 14 11 11 3
-2 0 -13 -6 -23z m274 -11 c-6 -7 -35 18 -35 31 0 5 9 2 20 -8 11 -10 18 -20
15 -23z m305 3 c10 -18 16 -22 22 -13 9 15 10 6 2 -16 -8 -22 -21 -20 -29 5
-4 11 -13 18 -20 15 -9 -3 -11 2 -8 15 7 26 17 24 33 -6z m75 15 c3 5 10 10
16 10 7 0 -16 -44 -48 -89 -2 -2 -6 -1 -10 2 -3 4 2 16 12 27 17 19 17 24 5
43 -12 20 -12 21 3 9 10 -9 17 -10 22 -2z m135 -11 c0 -6 -4 -7 -10 -4 -5 3
-10 11 -10 16 0 6 5 7 10 4 6 -3 10 -11 10 -16z m137 6 c0 -8 -4 -15 -9 -15
-10 0 -11 14 -1 23 9 10 10 9 10 -8z m-863 -10 c-4 -8 -11 -15 -16 -15 -6 0
-5 6 2 15 7 8 14 15 16 15 2 0 1 -7 -2 -15z m423 -14 c1 -11 -5 -25 -13 -32
-17 -14 -18 -51 -2 -67 9 -9 9 -12 1 -12 -11 0 -29 -37 -25 -52 1 -4 -5 -5
-13 -1 -10 3 -13 12 -9 26 5 15 3 19 -10 14 -8 -3 -18 -1 -22 5 -4 7 -3 8 4 4
7 -4 19 7 29 31 10 21 21 39 25 41 4 2 5 9 2 16 -3 8 2 21 11 30 20 20 20 20
22 -3z m517 -24 c-1 -12 -3 -23 -3 -25 -1 -2 -8 4 -16 12 -13 12 -14 20 -4 37
13 25 27 11 23 -24z m-776 8 c-3 -3 -9 2 -12 12 -6 14 -5 15 5 6 7 -7 10 -15
7 -18z m492 21 c0 -3 -4 -8 -10 -11 -5 -3 -10 -1 -10 4 0 6 5 11 10 11 6 0 10
-2 10 -4z m-412 -31 c-3 -3 -9 2 -12 12 -6 14 -5 15 5 6 7 -7 10 -15 7 -18z
m45 10 c-3 -9 -8 -14 -10 -11 -3 3 -2 9 2 15 9 16 15 13 8 -4z m391 -10 c-4
-8 -11 -12 -17 -8 -8 5 -7 8 1 11 7 2 9 9 6 14 -4 7 -2 8 4 4 6 -4 9 -13 6
-21z m-549 5 c3 -5 1 -10 -4 -10 -6 0 -11 5 -11 10 0 6 2 10 4 10 3 0 8 -4 11
-10z m339 -6 c3 -8 2 -12 -4 -9 -15 9 -12 -2 6 -30 10 -15 12 -25 6 -25 -17 0
-34 38 -27 60 8 24 11 25 19 4z m221 -82 c-5 -5 -79 77 -83 92 -2 6 16 -11 41
-39 25 -27 44 -51 42 -53z m30 66 c-1 -13 -3 -30 -4 -37 -1 -12 -4 -12 -13 -3
-9 9 -9 18 0 37 14 31 20 32 17 3z m-715 -9 c0 -6 -4 -7 -10 -4 -5 3 -10 11
-10 16 0 6 5 7 10 4 6 -3 10 -11 10 -16z m136 -4 c-8 -8 -18 -15 -22 -15 -3 0
-1 7 6 15 7 8 17 15 22 15 5 0 3 -7 -6 -15z m754 -5 c-8 -5 -17 -7 -19 -4 -3
3 1 9 9 14 8 5 17 7 19 4 3 -3 -1 -9 -9 -14z m-563 -12 c-3 -8 -6 -5 -6 6 -1
11 2 17 5 13 3 -3 4 -12 1 -19z m-87 -7 c-10 -19 -50 -25 -50 -8 0 5 7 6 15 3
9 -3 18 1 21 9 4 8 10 15 15 15 6 0 5 -8 -1 -19z m283 -12 c-35 -62 -41 -71
-52 -82 -22 -22 -10 7 25 59 38 59 55 73 27 23z m76 0 c12 -20 11 -21 -5 -15
-12 5 -24 -2 -40 -21 -13 -15 -23 -22 -24 -15 0 6 3 12 8 12 4 0 13 14 20 30
16 36 23 37 41 9z m216 -7 c0 -18 -20 -15 -23 4 -3 10 1 15 10 12 7 -3 13 -10
13 -16z m42 -10 c-10 -10 -17 -24 -17 -30 0 -7 -7 -12 -17 -12 -14 0 -14 2 3
21 10 12 19 24 19 28 0 3 3 5 8 4 4 -2 7 2 7 9 0 6 3 8 7 5 3 -4 -1 -15 -10
-25z m-407 8 c0 -5 -4 -10 -10 -10 -5 0 -10 5 -10 10 0 6 5 10 10 10 6 0 10
-4 10 -10z m341 -44 c-7 -8 -19 -12 -27 -9 -12 4 -12 7 2 18 11 7 14 17 9 26
-5 8 0 7 10 -3 15 -14 16 -20 6 -32z m-927 9 c-4 -8 -11 -15 -16 -15 -6 0 -5
6 2 15 7 8 14 15 16 15 2 0 1 -7 -2 -15z m851 5 c3 -5 1 -10 -4 -10 -6 0 -11
5 -11 10 0 6 2 10 4 10 3 0 8 -4 11 -10z m185 -4 c0 -2 -8 -10 -17 -17 -16
-13 -17 -12 -4 4 13 16 21 21 21 13z m-755 -46 c10 -11 16 -20 13 -20 -3 0
-13 9 -23 20 -10 11 -16 20 -13 20 3 0 13 -9 23 -20z m153 0 c-7 -10 -14 -18
-15 -16 -6 6 9 36 18 36 5 0 4 -9 -3 -20z m382 -15 c10 -12 9 -15 -4 -15 -11
0 -15 -5 -10 -12 4 -7 3 -10 -1 -5 -11 9 -14 47 -5 47 4 0 13 -7 20 -15z
m-348 -17 c-7 -7 -12 -8 -12 -2 0 14 12 26 19 19 2 -3 -1 -11 -7 -17z m-107
-38 c10 -11 16 -20 13 -20 -3 0 -13 9 -23 20 -10 11 -16 20 -13 20 3 0 13 -9
23 -20z m95 12 c0 -5 -7 -17 -16 -28 -8 -10 -14 -14 -11 -9 2 6 7 18 10 28 7
17 17 23 17 9z m-462 -47 c-3 -3 -9 2 -12 12 -6 14 -5 15 5 6 7 -7 10 -15 7
-18z m782 0 c11 -13 10 -14 -4 -9 -9 3 -16 10 -16 15 0 13 6 11 20 -6z m-400
-20 c11 -13 10 -14 -4 -9 -9 3 -16 10 -16 15 0 13 6 11 20 -6z m-187 -10 c-3
-9 -8 -14 -10 -11 -3 3 -2 9 2 15 9 16 15 13 8 -4z m237 5 c0 -5 -4 -10 -10
-10 -5 0 -7 -7 -4 -15 4 -8 1 -15 -5 -15 -12 0 -14 11 -5 34 7 18 24 22 24 6z
m-109 -27 c-12 -20 -14 -14 -5 12 4 9 9 14 11 11 3 -2 0 -13 -6 -23z m517 8
c3 -8 -1 -12 -9 -9 -7 2 -15 10 -17 17 -3 8 1 12 9 9 7 -2 15 -10 17 -17z
m-347 -78 c13 -16 12 -17 -3 -4 -17 13 -22 21 -14 21 2 0 10 -8 17 -17z"/>
<path d="M17706 9514 c-4 -9 -4 -19 -1 -22 2 -3 7 3 11 12 4 9 4 19 1 22 -2 3
-7 -3 -11 -12z"/>
<path d="M20260 8115 l0 -1785 1519 0 1519 0 144 193 c80 105 146 195 147 199
1 4 16 22 32 40 35 40 209 276 209 284 0 3 7 12 15 21 8 8 13 19 9 24 -3 5 -1
8 4 7 5 -2 21 12 36 30 l28 32 -386 0 c-279 0 -386 -3 -386 -11 0 -8 -4 -8
-12 -2 -7 6 -53 11 -102 11 -74 2 -91 -1 -102 -16 -12 -16 -14 -16 -26 0 -11
15 -83 25 -133 18 -5 0 -68 -2 -140 -3 -98 -1 -129 -5 -128 -14 2 -7 -2 -13
-8 -13 -6 0 -9 7 -5 15 5 13 -8 15 -82 14 -49 -1 -93 -6 -101 -13 -12 -8 -13
-8 -7 2 6 9 -99 12 -513 12 -459 0 -521 2 -535 16 -14 14 -16 152 -16 1370 l0
1354 -490 0 -490 0 0 -1785z m2870 -981 c0 -2 -9 -4 -21 -4 -11 0 -18 4 -14
10 5 8 35 3 35 -6z m-389 -31 c-12 -20 -14 -14 -5 12 4 9 9 14 11 11 3 -2 0
-13 -6 -23z m169 7 c0 -5 -2 -10 -4 -10 -3 0 -8 5 -11 10 -3 6 -1 10 4 10 6 0
11 -4 11 -10z m-360 -10 c0 -5 -5 -10 -11 -10 -5 0 -7 5 -4 10 3 6 8 10 11 10
2 0 4 -4 4 -10z m544 2 c2 -4 -5 -9 -17 -9 -17 -2 -19 0 -7 7 18 12 18 12 24
2z m361 -202 c3 -5 1 -10 -4 -10 -6 0 -11 5 -11 10 0 6 2 10 4 10 3 0 8 -4 11
-10z m60 -60 c3 -5 1 -10 -4 -10 -6 0 -11 5 -11 10 0 6 2 10 4 10 3 0 8 -4 11
-10z m59 -15 c4 -11 0 -14 -17 -11 -12 3 -24 5 -27 5 -6 2 23 21 31 21 4 0 9
-7 13 -15z m33 -60 c0 -8 -4 -12 -9 -9 -4 3 -8 9 -8 15 0 5 4 9 8 9 5 0 9 -7
9 -15z"/>
<path d="M6955 9784 c-564 -86 -1068 -415 -1385 -905 -118 -183 -188 -351
-236 -571 -24 -108 -27 -145 -28 -308 -1 -198 8 -275 51 -425 95 -333 283
-605 582 -841 58 -46 107 -82 109 -80 2 2 -22 43 -53 90 -194 297 -284 668
-255 1054 29 386 162 715 402 991 69 80 104 53 55 -44 -69 -137 -148 -392
-178 -570 -56 -343 -25 -678 92 -977 80 -202 165 -332 329 -502 266 -276 549
-419 952 -483 164 -26 460 -24 628 5 398 68 777 252 1054 512 l61 58 -96 -47
c-250 -123 -519 -173 -806 -152 -755 58 -1409 588 -1597 1294 -45 171 -51 223
-51 442 0 182 3 225 23 319 102 478 397 890 787 1102 l76 41 -62 7 c-102 10
-358 5 -454 -10z"/>
<path d="M10568 9023 c7 -3 16 -2 19 1 4 3 -2 6 -13 5 -11 0 -14 -3 -6 -6z"/>
<path d="M10668 9023 c6 -2 18 -2 25 0 6 3 1 5 -13 5 -14 0 -19 -2 -12 -5z"/>
<path d="M10823 9023 c59 -2 155 -2 215 0 59 1 10 3 -108 3 -118 0 -167 -2
-107 -3z"/>
<path d="M2480 8583 c30 -9 100 -28 155 -44 55 -15 134 -38 175 -49 317 -91
752 -213 835 -235 55 -14 195 -53 310 -85 421 -118 728 -201 732 -197 2 3 -3
49 -11 103 -20 128 -36 316 -36 427 l0 87 -602 0 c-332 0 -830 2 -1108 5 -473
4 -502 3 -450 -12z"/>
<path d="M8440 8140 l0 -380 278 0 c152 0 548 0 879 0 536 0 603 -1 617 -16 9
-8 16 -17 16 -18 0 -2 -18 -50 -39 -107 -91 -242 -167 -394 -296 -589 -70
-106 -109 -159 -199 -270 -7 -8 -88 -91 -182 -185 -178 -179 -336 -306 -526
-424 -109 -69 -387 -210 -451 -231 -22 -7 -42 -21 -47 -33 -12 -28 -220 -845
-220 -863 0 -12 203 34 340 78 432 136 848 357 1197 635 110 87 286 246 347
312 23 24 46 49 51 55 6 6 39 45 75 86 36 41 67 77 70 80 21 19 189 253 240
335 34 55 70 111 79 125 30 46 138 264 190 382 155 360 261 837 278 1256 l6
152 -202 0 c-120 0 -210 -4 -222 -10 -13 -7 -19 -7 -19 0 0 7 -358 10 -1130
10 l-1130 0 0 -380z"/>
<path d="M4150 7230 c-9 -6 -10 -10 -3 -10 6 0 15 5 18 10 8 12 4 12 -15 0z"/>
<path d="M5110 7000 c0 -5 5 -10 11 -10 5 0 7 5 4 10 -3 6 -8 10 -11 10 -2 0
-4 -4 -4 -10z"/>
<path d="M4356 6627 c3 -10 9 -15 12 -12 3 3 0 11 -7 18 -10 9 -11 8 -5 -6z"/>
<path d="M4396 6567 c3 -10 9 -15 12 -12 3 3 0 11 -7 18 -10 9 -11 8 -5 -6z"/>
<path d="M15120 5819 c0 -5 5 -7 10 -4 6 3 10 8 10 11 0 2 -4 4 -10 4 -5 0
-10 -5 -10 -11z"/>
<path d="M15078 5813 c6 -2 18 -2 25 0 6 3 1 5 -13 5 -14 0 -19 -2 -12 -5z"/>
<path d="M8055 5785 c-122 -28 -432 -64 -558 -65 -4 0 -7 -564 -6 -1252 1
-1231 2 -1251 20 -1183 10 39 38 147 62 240 25 94 72 276 106 405 34 129 68
260 77 290 8 30 41 159 74 285 32 127 75 293 95 370 32 120 202 798 225 893 9
38 4 39 -95 17z"/>
<path d="M11960 5508 c-13 -5 -36 -6 -50 -3 -19 4 -21 3 -10 -5 12 -8 11 -10
-7 -10 -13 0 -23 5 -23 10 0 6 -4 10 -10 10 -5 0 -9 -6 -7 -12 1 -7 -4 -12
-10 -10 -7 1 -13 -7 -13 -18 0 -11 -4 -20 -10 -20 -5 0 -10 5 -10 10 0 6 -15
10 -32 10 -25 0 -29 3 -18 10 12 8 12 10 -5 9 -11 0 -29 -4 -40 -8 -23 -9 -47
-3 -39 10 9 15 -6 10 -24 -7 -12 -12 -28 -15 -66 -12 -53 6 -76 2 -76 -11 0
-5 35 -7 78 -6 42 2 70 0 62 -3 -8 -3 -19 -10 -23 -16 -6 -8 -10 -8 -13 1 -4
8 -13 9 -35 1 -16 -5 -36 -8 -44 -4 -8 3 -21 -1 -29 -9 -11 -11 -16 -12 -19
-2 -4 9 -8 8 -16 -2 -11 -17 -66 -28 -56 -12 3 7 0 8 -9 5 -9 -3 -14 -10 -11
-14 3 -4 -3 -14 -12 -21 -13 -11 -15 -11 -9 -1 7 12 0 13 -59 2 -5 -1 1 -6 15
-10 17 -6 9 -7 -24 -3 -35 4 -47 3 -42 -6 4 -6 2 -11 -3 -11 -6 0 -11 -8 -11
-17 0 -13 3 -14 12 -5 7 7 16 12 21 12 5 0 2 -7 -6 -15 -12 -12 -21 -12 -47
-4 -32 12 -41 10 -112 -28 -16 -8 -28 -10 -28 -4 0 5 6 11 13 14 6 3 2 4 -10
4 -12 -1 -21 -4 -21 -7 2 -21 -5 -30 -21 -30 -11 0 -21 5 -23 12 -3 8 -12 8
-35 -2 -18 -8 -29 -18 -26 -24 3 -5 1 -6 -6 -2 -6 4 -18 2 -26 -4 -13 -10 -15
-8 -15 14 0 14 3 25 8 25 28 -5 61 4 78 20 12 10 41 22 65 27 24 4 47 9 52 10
4 1 12 2 17 3 6 0 10 7 10 15 0 8 5 18 12 22 7 4 8 3 4 -4 -4 -7 -1 -12 8 -12
9 0 16 5 16 11 0 6 8 8 19 4 12 -3 21 0 25 10 3 9 18 15 36 15 17 0 29 3 27 8
-3 4 20 8 51 9 31 1 58 6 60 12 2 5 10 7 18 4 19 -7 64 5 64 18 0 6 -9 7 -22
3 -13 -5 -38 -7 -56 -6 -18 1 -31 -2 -28 -7 3 -4 -5 -6 -17 -4 -12 2 -42 -1
-67 -7 -25 -6 -60 -12 -77 -13 -18 -1 -33 -6 -33 -11 0 -5 -13 -6 -30 -3 -16
4 -32 2 -35 -3 -3 -6 2 -8 12 -5 10 3 5 -1 -11 -9 -21 -9 -39 -11 -60 -5 -16
5 -32 6 -35 4 -2 -3 1 -5 7 -5 7 0 12 -4 12 -10 0 -5 -19 -9 -42 -9 -24 1 -34
3 -23 6 11 3 24 9 29 13 12 12 -32 0 -64 -17 -32 -16 -43 -17 -34 0 5 7 0 6
-11 -3 -11 -9 -16 -10 -11 -2 11 18 -5 15 -21 -5 -14 -17 -14 -17 -9 0 4 13 2
16 -7 10 -6 -4 -20 -6 -29 -5 -20 4 -24 -14 -5 -21 9 -4 9 -6 0 -6 -6 -1 -15
4 -18 9 -3 6 -15 10 -26 10 -13 0 -18 -4 -13 -12 5 -7 0 -9 -14 -6 -12 3 -23
1 -26 -6 -3 -7 -5 -7 -5 2 -1 6 -6 12 -12 12 -5 0 -7 -4 -4 -10 3 -5 -3 -10
-14 -10 -11 0 -22 -4 -25 -8 -7 -12 -64 -13 -72 -1 -3 5 -11 6 -17 2 -7 -4
-28 -9 -47 -11 -19 -2 -41 -4 -47 -4 -7 -1 -13 -4 -13 -8 0 -4 -15 -7 -32 -7
-18 0 -53 -3 -78 -7 -25 -3 -51 -7 -57 -8 -7 -1 -13 -5 -13 -10 0 -5 -11 -6
-24 -2 -14 3 -67 -3 -118 -15 -51 -11 -129 -27 -173 -35 -79 -14 -76 -14 175
-13 209 0 257 3 266 15 9 12 13 12 27 -2 13 -13 17 -14 24 -3 7 12 68 33 128
43 40 7 50 10 63 18 25 15 72 25 77 15 5 -8 -16 -14 -37 -10 -5 0 -8 -4 -8 -9
0 -6 -6 -10 -12 -9 -7 1 -26 -3 -43 -10 -16 -7 -57 -19 -90 -28 -33 -8 -62
-17 -65 -20 -3 -3 33 -2 80 2 47 4 87 11 88 16 3 6 9 5 17 -1 11 -9 19 -7 36
8 11 11 27 18 34 16 7 -3 16 0 20 5 3 6 10 9 15 6 5 -3 20 0 32 7 30 16 61 21
53 8 -3 -5 -1 -10 4 -10 6 0 11 6 11 13 0 9 3 8 9 -2 5 -8 14 -10 22 -6 9 6
11 4 6 -7 -3 -9 -1 -20 4 -25 6 -6 4 -10 -5 -10 -8 0 -14 5 -13 11 1 6 -4 11
-12 11 -8 0 -15 -10 -16 -22 -1 -19 2 -21 42 -17 30 3 43 0 43 -8 1 -8 7 -5
15 6 18 23 46 31 38 10 -3 -8 -10 -11 -16 -7 -5 3 -7 2 -4 -4 8 -13 95 -7 115
9 13 11 14 11 7 -1 -6 -11 -5 -12 6 -5 8 5 19 9 24 10 26 2 76 17 80 23 2 4
18 6 34 5 17 -1 29 2 26 6 -5 8 44 25 148 51 26 6 50 15 53 20 3 5 14 9 26 9
11 0 33 9 49 21 19 13 36 18 50 14 14 -5 19 -3 15 3 -3 6 -2 13 4 17 5 3 10 1
10 -4 0 -6 8 -11 18 -11 14 0 15 2 2 10 -14 9 -7 12 16 9 4 0 10 3 13 8 3 5
19 14 35 21 23 10 31 10 44 0 12 -10 14 -10 8 0 -9 15 11 24 62 27 20 1 45 3
55 4 10 0 16 5 12 10 -3 5 -1 12 5 16 5 3 10 2 10 -4 0 -5 14 -3 31 6 16 8 48
17 70 20 22 3 37 8 34 11 -10 10 -59 10 -85 0z m-83 -44 c-3 -3 -12 -4 -19 -1
-8 3 -5 6 6 6 11 1 17 -2 13 -5z m-187 -13 c0 -6 -4 -12 -8 -15 -5 -3 -9 1 -9
9 0 8 4 15 9 15 4 0 8 -4 8 -9z m-187 -58 c-7 -2 -19 -2 -25 0 -7 3 -2 5 12 5
14 0 19 -2 13 -5z m-573 -57 c0 -9 -40 -13 -46 -5 -3 5 6 9 20 9 14 0 26 -2
26 -4z m-99 -21 c-18 -8 -38 -12 -44 -8 -5 3 -7 1 -4 -4 4 -6 -2 -13 -13 -16
-13 -3 -20 0 -20 9 0 7 10 16 23 18 12 3 31 7 42 9 42 9 49 6 16 -8z m-241
-25 c0 -5 -10 -10 -22 -10 -19 0 -20 2 -8 10 19 13 30 13 30 0z m-55 -21 c-4
-6 -13 -8 -21 -5 -8 3 -14 0 -14 -6 0 -6 -3 -9 -6 -5 -10 10 6 27 27 27 12 0
17 -4 14 -11z"/>
<path d="M11790 5499 c0 -5 5 -7 10 -4 6 3 10 8 10 11 0 2 -4 4 -10 4 -5 0
-10 -5 -10 -11z"/>
<path d="M15130 5500 c0 -5 4 -10 9 -10 6 0 13 5 16 10 3 6 -1 10 -9 10 -9 0
-16 -4 -16 -10z"/>
<path d="M12025 5470 c-3 -5 -12 -7 -20 -3 -9 3 -15 -1 -15 -10 0 -14 5 -14
33 -5 41 14 52 23 27 25 -11 1 -22 -2 -25 -7z"/>
<path d="M11945 5440 c-3 -5 -2 -10 4 -10 5 0 13 5 16 10 3 6 2 10 -4 10 -5 0
-13 -4 -16 -10z"/>
<path d="M12045 5430 c-3 -5 -1 -10 4 -10 6 0 11 5 11 10 0 6 -2 10 -4 10 -3
0 -8 -4 -11 -10z"/>
<path d="M12015 5420 c-3 -5 -1 -10 4 -10 6 0 11 5 11 10 0 6 -2 10 -4 10 -3
0 -8 -4 -11 -10z"/>
<path d="M11962 5404 c-18 -8 -30 -19 -27 -24 3 -6 8 -10 11 -10 3 0 2 5 -2
12 -5 8 0 9 14 6 12 -4 20 -2 16 3 -3 5 2 9 10 9 9 0 16 5 16 10 0 6 -1 10 -2
9 -2 0 -18 -7 -36 -15z"/>
<path d="M11706 5352 c-3 -5 1 -9 9 -9 8 0 12 4 9 9 -3 4 -7 8 -9 8 -2 0 -6
-4 -9 -8z"/>
<path d="M11976 5345 c-3 -8 -1 -15 4 -15 6 0 10 7 10 15 0 8 -2 15 -4 15 -2
0 -6 -7 -10 -15z"/>
<path d="M11218 5343 c7 -3 16 -2 19 1 4 3 -2 6 -13 5 -11 0 -14 -3 -6 -6z"/>
<path d="M11656 5342 c-3 -6 -22 -13 -42 -17 -20 -3 -44 -10 -53 -15 -9 -5
-49 -21 -89 -35 -65 -22 -75 -23 -88 -10 -20 19 -28 19 -20 -1 3 -8 -1 -22
-10 -31 -19 -19 -10 -30 11 -13 13 11 16 11 13 -1 -2 -10 4 -13 21 -11 15 2
21 0 17 -7 -4 -6 -2 -11 3 -11 6 0 12 5 12 10 1 6 2 15 3 22 0 7 23 20 49 30
35 13 47 15 44 6 -2 -7 -10 -12 -16 -10 -6 1 -11 -3 -11 -9 0 -6 -9 -9 -19 -6
-10 2 -25 1 -32 -4 -10 -6 -9 -10 6 -15 18 -7 18 -8 -1 -15 -11 -4 6 -7 43 -6
33 1 59 5 56 10 -2 4 5 7 17 7 12 0 18 -4 15 -10 -12 -19 7 -10 26 13 13 16
18 18 19 7 0 -12 2 -12 8 -2 5 7 22 15 38 18 16 3 35 12 42 21 7 10 12 12 12
5 0 -10 5 -10 22 -1 13 7 36 14 53 16 16 2 32 8 33 13 2 6 8 7 13 4 6 -3 15
-2 22 4 19 14 49 23 42 12 -3 -6 -1 -10 4 -10 6 0 11 5 11 11 0 5 4 8 9 4 14
-8 21 9 10 25 -5 9 -9 10 -9 3 0 -6 -23 -14 -50 -18 -28 -4 -57 -14 -65 -22
-9 -9 -15 -10 -15 -3 0 7 -5 8 -12 3 -7 -4 -24 -9 -38 -10 -44 -5 -50 -6 -50
-15 0 -4 -7 -8 -16 -8 -10 0 -14 6 -11 14 4 10 1 13 -8 9 -8 -3 -13 -8 -10
-12 2 -4 -10 -5 -27 -3 -27 4 -29 6 -12 15 11 6 23 16 27 24 7 11 12 11 22 3
10 -9 13 -7 11 6 -3 20 -21 30 -30 16z m-141 -122 c-3 -5 -11 -10 -16 -10 -6
0 -7 5 -4 10 3 6 11 10 16 10 6 0 7 -4 4 -10z"/>
<path d="M11036 5305 c4 -8 8 -15 10 -15 2 0 4 7 4 15 0 8 -4 15 -10 15 -5 0
-7 -7 -4 -15z"/>
<path d="M10816 5227 c-15 -11 -15 -13 8 -15 14 -1 26 2 26 8 0 16 -17 20 -34
7z"/>
<path d="M10736 5218 c3 -4 12 -8 20 -8 8 0 14 4 14 8 0 4 -9 8 -19 8 -11 0
-17 -4 -15 -8z"/>
<path d="M11657 5223 c-10 -9 -9 -33 1 -33 4 0 8 9 9 20 2 21 0 24 -10 13z"/>
<path d="M12010 5220 c-20 -6 -21 -8 -5 -8 11 0 29 3 40 8 25 11 -1 11 -35 0z"/>
<path d="M11250 5211 c0 -6 5 -13 10 -16 6 -3 10 1 10 9 0 9 -4 16 -10 16 -5
0 -10 -4 -10 -9z"/>
<path d="M11285 5211 c-3 -5 -1 -12 5 -16 5 -3 10 -2 10 4 0 6 7 8 15 5 8 -4
15 -1 15 5 0 13 -36 15 -45 2z"/>
<path d="M12338 5183 c7 -3 16 -2 19 1 4 3 -2 6 -13 5 -11 0 -14 -3 -6 -6z"/>
<path d="M14383 5183 c9 -2 23 -2 30 0 6 3 -1 5 -18 5 -16 0 -22 -2 -12 -5z"/>
<path d="M14438 5183 c7 -3 16 -2 19 1 4 3 -2 6 -13 5 -11 0 -14 -3 -6 -6z"/>
<path d="M14488 5183 c7 -3 16 -2 19 1 4 3 -2 6 -13 5 -11 0 -14 -3 -6 -6z"/>
<path d="M14563 5183 c20 -2 54 -2 75 0 20 2 3 4 -38 4 -41 0 -58 -2 -37 -4z"/>
<path d="M14748 5183 c39 -2 105 -2 145 0 39 1 7 3 -73 3 -80 0 -112 -2 -72
-3z"/>
<path d="M14978 5183 c7 -3 16 -2 19 1 4 3 -2 6 -13 5 -11 0 -14 -3 -6 -6z"/>
<path d="M15037 5183 c18 -2 50 -2 70 0 21 2 7 4 -32 4 -38 0 -55 -2 -38 -4z"/>
<path d="M15178 5183 c6 -2 18 -2 25 0 6 3 1 5 -13 5 -14 0 -19 -2 -12 -5z"/>
<path d="M15258 5183 c6 -2 18 -2 25 0 6 3 1 5 -13 5 -14 0 -19 -2 -12 -5z"/>
<path d="M15453 5183 c20 -2 54 -2 75 0 20 2 3 4 -38 4 -41 0 -58 -2 -37 -4z"/>
<path d="M15783 5183 c120 -2 314 -2 430 0 117 1 19 2 -218 2 -236 0 -332 -1
-212 -2z"/>
<path d="M16653 5183 c9 -2 23 -2 30 0 6 3 -1 5 -18 5 -16 0 -22 -2 -12 -5z"/>
<path d="M21762 4709 c-13 -5 -30 -25 -38 -44 -39 -93 53 -174 130 -114 22 17
26 28 26 70 0 36 -5 54 -20 69 -11 11 -23 21 -27 21 -32 6 -52 5 -71 -2z"/>
<path d="M15118 4663 c-31 -32 -48 -73 -48 -112 0 -42 37 -36 61 11 10 20 27
41 37 46 26 14 72 -4 117 -44 22 -19 51 -40 65 -45 60 -24 128 21 150 99 15
57 13 72 -12 72 -17 0 -27 -10 -40 -40 -22 -53 -57 -69 -101 -47 -17 10 -51
33 -75 52 -57 46 -115 49 -154 8z"/>
<path d="M9322 4615 c-152 -33 -274 -153 -330 -324 -31 -95 -34 -250 -8 -350
31 -119 111 -235 206 -297 82 -53 267 -76 375 -45 62 18 142 67 179 111 l27
33 -45 45 -45 45 -37 -33 c-99 -87 -230 -106 -342 -50 -72 37 -115 82 -154
166 -39 83 -51 164 -38 254 19 134 84 233 187 286 51 25 68 29 143 29 72 0 93
-4 135 -27 28 -14 63 -39 78 -54 l29 -28 44 49 44 50 -53 48 c-65 61 -92 75
-175 93 -82 17 -138 17 -220 -1z"/>
<path d="M19043 4619 c-96 -18 -179 -73 -212 -138 -27 -52 -44 -145 -36 -194
20 -124 87 -180 297 -247 158 -50 192 -69 219 -122 54 -106 -32 -207 -178
-208 -88 0 -149 15 -237 60 l-77 38 -10 -26 c-5 -15 -15 -39 -21 -55 -14 -36
5 -57 79 -93 157 -74 396 -66 496 16 60 51 89 110 95 196 6 93 -10 151 -55
204 -43 50 -102 81 -224 116 -102 29 -192 66 -213 86 -40 41 -48 114 -16 165
56 93 260 109 388 31 19 -12 37 -17 42 -12 14 15 41 105 34 116 -12 18 -92 49
-170 63 -83 16 -136 17 -201 4z"/>
<path d="M12340 4466 c0 -99 -10 -116 -71 -116 l-39 0 0 -55 0 -55 39 0 c70 0
71 -3 71 -254 0 -250 8 -291 63 -343 18 -17 47 -35 66 -42 77 -25 231 -2 218
33 -3 8 -11 32 -18 54 -11 37 -14 40 -36 31 -57 -21 -122 1 -147 50 -21 40
-24 449 -4 462 7 5 48 9 91 9 l77 0 0 55 0 55 -77 0 c-43 0 -84 4 -92 9 -10 7
-13 32 -12 100 l2 91 -65 0 -66 0 0 -84z"/>
<path d="M10135 4357 c-69 -23 -100 -44 -153 -102 -66 -72 -92 -149 -92 -274
0 -265 161 -420 403 -389 114 15 215 95 259 207 19 47 22 75 22 176 0 101 -3
129 -22 177 -30 75 -99 150 -169 184 -66 33 -183 42 -248 21z m174 -127 c110
-51 163 -183 131 -333 -29 -141 -159 -221 -278 -172 -53 23 -81 52 -113 120
-24 50 -29 73 -29 135 0 62 5 85 29 135 33 70 62 99 116 119 55 20 93 19 144
-4z"/>
<path d="M11060 4361 c-40 -13 -85 -38 -100 -56 -38 -46 -80 -32 -80 26 0 29
0 29 -60 29 l-59 0 -1 -380 0 -380 65 0 65 0 0 220 c0 196 2 225 20 274 27 71
54 104 104 127 94 43 188 13 233 -74 28 -52 28 -52 31 -299 l4 -248 64 0 64 0
0 218 c0 119 -5 250 -10 290 -23 173 -97 252 -245 258 -38 2 -81 0 -95 -5z"/>
<path d="M11767 4359 c-55 -13 -90 -33 -125 -73 -53 -61 -68 -165 -33 -242 30
-66 82 -94 218 -120 48 -9 104 -24 124 -34 85 -44 75 -150 -18 -181 -56 -18
-177 -6 -247 25 -32 14 -61 26 -65 26 -4 0 -15 -21 -24 -47 -18 -47 -18 -48 4
-65 60 -50 263 -75 374 -47 53 13 122 70 141 116 22 52 18 161 -7 203 -38 61
-72 80 -207 109 -140 31 -174 52 -187 120 -6 30 36 84 75 98 52 18 138 15 200
-7 30 -11 59 -21 64 -23 5 -1 18 20 28 47 18 46 18 49 1 62 -47 35 -227 54
-316 33z"/>
<path d="M13142 4355 c-23 -7 -60 -29 -82 -49 -22 -20 -42 -36 -44 -36 -15 0
-36 36 -36 61 0 29 0 29 -60 29 l-60 0 0 -380 0 -380 65 0 65 0 0 219 c0 232
6 269 51 333 25 34 109 78 152 78 27 0 27 0 27 70 0 79 -1 79 -78 55z"/>
<path d="M14441 4354 c-191 -51 -292 -284 -226 -520 31 -110 117 -200 222
-230 59 -17 72 -39 54 -88 -16 -39 -14 -43 19 -49 36 -8 70 -40 70 -67 0 -12
-12 -33 -26 -47 -23 -23 -31 -25 -85 -20 -32 3 -59 1 -59 -3 0 -5 -3 -15 -6
-24 -8 -21 65 -40 120 -31 82 14 121 55 120 126 -2 44 -15 64 -58 86 -42 21
-47 32 -30 64 11 22 28 32 79 48 77 23 126 57 161 113 14 22 24 41 22 42 -2 2
-24 17 -50 34 l-47 32 -21 -30 c-28 -39 -109 -80 -157 -80 -21 0 -56 9 -78 19
-89 41 -139 132 -139 253 0 66 5 86 33 142 25 52 41 71 77 92 87 51 176 41
242 -26 21 -22 42 -40 46 -40 16 0 86 54 86 67 0 8 -24 38 -54 68 -81 81 -185
104 -315 69z"/>
<path d="M15187 4359 c-76 -18 -145 -69 -197 -145 -75 -108 -81 -316 -12 -450
29 -57 121 -138 178 -158 69 -23 190 -21 258 5 195 73 276 357 166 584 -62
129 -236 201 -393 164z m205 -145 c28 -20 53 -50 73 -89 26 -52 30 -69 30
-144 0 -92 -22 -160 -68 -209 -84 -90 -234 -81 -307 19 -104 144 -67 366 75
443 49 27 144 17 197 -20z"/>
<path d="M16003 4356 c-128 -41 -210 -148 -234 -309 -27 -180 45 -346 183
-423 50 -28 59 -29 173 -29 107 0 125 3 164 23 24 13 55 35 68 48 l24 24 -20
28 c-53 71 -47 68 -81 38 -42 -35 -128 -59 -177 -50 -93 17 -141 51 -179 126
-28 55 -30 71 -8 92 13 14 51 16 265 16 l249 0 0 48 c0 78 -27 181 -61 234
-78 121 -229 176 -366 134z m171 -111 c55 -23 76 -44 107 -110 33 -69 35 -78
13 -99 -13 -13 -45 -16 -194 -16 -212 0 -217 2 -195 76 40 132 156 196 269
149z"/>
<path d="M16775 4365 c-5 -2 -29 -9 -53 -15 -87 -22 -151 -110 -152 -207 0
-118 55 -179 188 -208 141 -32 184 -46 208 -70 49 -49 21 -131 -53 -156 -60
-20 -170 -7 -247 29 l-66 31 -15 -29 c-38 -73 -38 -78 3 -99 73 -37 160 -53
267 -49 115 4 166 25 219 91 30 37 31 43 31 130 0 82 -3 96 -24 125 -33 43
-86 67 -206 92 -114 25 -157 47 -175 91 -11 26 -10 36 3 64 25 53 60 70 147
72 60 1 88 -3 135 -22 32 -14 60 -23 60 -22 1 1 10 24 19 51 22 57 22 57 -75
86 -59 18 -183 26 -214 15z"/>
<path d="M17832 4351 c-96 -33 -185 -141 -212 -260 -17 -74 -8 -210 21 -286
31 -85 123 -177 198 -199 69 -20 192 -21 259 -1 48 15 122 66 122 85 0 4 -15
26 -34 49 -30 36 -35 39 -47 24 -25 -29 -101 -56 -164 -56 -97 -1 -163 42
-211 135 -28 56 -29 62 -8 82 13 14 52 16 266 16 l251 0 -6 83 c-7 118 -36
189 -106 258 -45 44 -68 58 -117 72 -77 22 -145 21 -212 -2z m186 -106 c51
-22 81 -52 108 -110 28 -59 30 -78 8 -99 -13 -13 -45 -16 -189 -16 -144 0
-176 3 -189 16 -20 19 -20 35 -1 81 49 117 159 171 263 128z"/>
<path d="M19838 4356 c-143 -38 -237 -183 -239 -365 -1 -132 20 -200 89 -287
28 -36 59 -61 99 -80 53 -27 67 -29 168 -29 122 0 176 16 229 70 23 23 25 29
14 43 -44 58 -57 71 -63 62 -4 -6 -30 -22 -58 -36 -88 -45 -209 -32 -276 29
-23 22 -71 111 -71 134 0 6 7 19 16 27 13 14 51 16 261 16 l245 0 -4 94 c-3
80 -8 102 -37 160 -69 141 -216 204 -373 162z m201 -129 c40 -27 81 -90 95
-149 12 -53 -6 -58 -204 -58 -209 0 -218 3 -195 69 29 84 58 121 120 155 46
25 133 17 184 -17z"/>
<path d="M20726 4355 c-21 -7 -55 -26 -75 -42 -20 -16 -41 -32 -48 -36 -18
-11 -43 21 -43 54 0 29 0 29 -60 29 l-60 0 0 -380 0 -380 65 0 65 0 0 213 c0
227 7 277 50 337 26 36 78 65 138 75 l42 7 0 69 c0 77 -3 80 -74 54z"/>
<path d="M22272 4351 c-160 -55 -256 -249 -223 -448 17 -101 52 -172 116 -233
38 -35 68 -53 109 -65 66 -19 83 -41 67 -87 -15 -44 -14 -48 14 -48 31 0 75
-41 75 -70 0 -11 -12 -33 -26 -47 -23 -23 -31 -25 -79 -20 -48 5 -53 3 -63
-19 -11 -22 -9 -24 30 -35 79 -21 178 13 199 69 23 59 -6 130 -61 147 -25 8
-32 31 -18 60 9 19 27 30 77 45 75 23 93 36 145 104 l37 49 -48 32 -48 33 -27
-33 c-35 -42 -103 -75 -154 -75 -124 1 -217 116 -217 272 0 68 5 87 32 143 27
55 41 70 84 95 85 49 178 33 242 -41 l30 -35 47 34 c47 33 47 34 33 62 -23 44
-94 99 -149 115 -67 20 -159 18 -224 -4z"/>
<path d="M23021 4355 c-169 -47 -270 -236 -241 -447 19 -133 93 -243 198 -294
45 -22 190 -31 247 -15 61 16 130 64 169 118 112 155 97 427 -31 558 -80 81
-221 114 -342 80z m212 -141 c25 -18 54 -51 72 -84 27 -49 30 -64 30 -145 0
-73 -4 -99 -23 -140 -41 -89 -105 -135 -187 -135 -157 0 -256 188 -200 378 43
143 195 205 308 126z"/>
<path d="M23787 4359 c-90 -21 -161 -88 -172 -164 -23 -153 29 -226 183 -260
181 -40 215 -57 228 -112 10 -40 -7 -75 -51 -101 -35 -20 -50 -23 -127 -19
-74 3 -96 8 -149 35 -34 18 -64 30 -66 28 -2 -2 -13 -27 -24 -55 l-19 -51 30
-19 c93 -56 320 -68 415 -21 71 35 106 89 112 172 6 76 -7 125 -45 163 -35 35
-67 48 -185 73 -112 24 -159 49 -177 93 -11 26 -10 36 3 64 27 56 59 70 157
70 65 -1 96 -6 133 -22 l47 -22 14 33 c30 72 30 72 -16 89 -96 36 -206 46
-291 26z"/>
<path d="M13382 4083 c5 -257 7 -282 27 -335 39 -101 126 -158 241 -158 75 0
127 18 173 62 23 21 42 38 43 38 13 0 34 -38 34 -61 0 -29 0 -29 60 -29 l60 0
0 380 0 380 -64 0 -64 0 -4 -242 c-3 -232 -4 -245 -27 -288 -34 -65 -59 -89
-111 -104 -55 -16 -119 -8 -159 21 -14 10 -37 41 -51 69 -24 48 -25 55 -28
297 l-3 247 -66 0 -65 0 4 -277z"/>
<path d="M20894 4344 c24 -64 242 -659 254 -696 l16 -48 75 0 76 0 57 158 c31
86 75 207 97 267 21 61 57 161 80 223 l40 112 -64 0 c-41 0 -65 -4 -65 -11 0
-22 -184 -512 -198 -525 -36 -37 -47 -17 -147 274 l-90 262 -69 0 c-58 0 -67
-2 -62 -16z"/>
<path d="M21740 3980 l0 -380 65 0 65 0 0 380 0 380 -65 0 -65 0 0 -380z"/>
</g>
</svg>
